<?xml version="1.0" encoding="UTF-8" standalone="no"?>
<svg
   version="1.1"
   x="0px"
   y="0px"
   viewBox="0 0 77.035004 78.799004"
   enable-background="new 0 0 100 100"
   xml:space="preserve"
   id="svg8"
   sodipodi:docname="share.svg"
   width="77.035004"
   height="78.799004"
   inkscape:version="1.2.2 (b0a8486541, 2022-12-01)"
   xmlns:inkscape="http://www.inkscape.org/namespaces/inkscape"
   xmlns:sodipodi="http://sodipodi.sourceforge.net/DTD/sodipodi-0.dtd"
   xmlns="http://www.w3.org/2000/svg"
   xmlns:svg="http://www.w3.org/2000/svg"><defs
     id="defs12" /><sodipodi:namedview
     id="namedview10"
     pagecolor="#ffffff"
     bordercolor="#666666"
     borderopacity="1.0"
     inkscape:showpageshadow="2"
     inkscape:pageopacity="0.0"
     inkscape:pagecheckerboard="0"
     inkscape:deskcolor="#d1d1d1"
     showgrid="false"
     inkscape:zoom="6.968"
     inkscape:cx="38.533295"
     inkscape:cy="52.167049"
     inkscape:window-width="1728"
     inkscape:window-height="1048"
     inkscape:window-x="0"
     inkscape:window-y="32"
     inkscape:window-maximized="1"
     inkscape:current-layer="svg8" /><path
     d="m 62.886,51.004 c -3.535,0 -6.746,1.354 -9.17,3.559 L 27.623,41.258 c 0.104,-0.679 0.174,-1.369 0.174,-2.078 0,-0.399 -0.026,-0.792 -0.06,-1.183 L 54.078,24.568 c 2.378,2.012 5.449,3.23 8.809,3.23 7.537,0 13.648,-6.11 13.648,-13.648 0,-7.538 -6.111,-13.65 -13.648,-13.65 -7.539,0 -13.65,6.111 -13.65,13.65 0,0.416 0.026,0.826 0.063,1.232 L 22.993,28.795 C 20.611,26.764 17.526,25.531 14.15,25.531 6.612,25.531 0.5,31.642 0.5,39.18 c 0,7.538 6.112,13.649 13.65,13.649 3.04,0 5.837,-1.006 8.105,-2.686 l 27.018,13.775 c -0.013,0.244 -0.037,0.485 -0.037,0.732 0,7.539 6.111,13.649 13.65,13.649 7.537,0 13.648,-6.11 13.648,-13.649 10e-4,-7.536 -6.111,-13.646 -13.648,-13.646 z"
     id="path2"
     style="fill:#ffffff;stroke:#ffffff" /></svg>
